<?xml version="1.0" encoding="utf-8"?>
<!-- Generator: Adobe Illustrator 23.0.2, SVG Export Plug-In . SVG Version: 6.00 Build 0)  -->
<svg version="1.1" id="Layer_1" xmlns="http://www.w3.org/2000/svg" xmlns:xlink="http://www.w3.org/1999/xlink" x="0px" y="0px"
	 viewBox="0 0 3700 650" style="enable-background:new 0 0 3700 650;" xml:space="preserve">
<style type="text/css">
	.st0{fill:#FFFFFF;}
</style>
<g>
	<path class="st0" d="M1176.88,446.64h-138.46l-22.25,64.78H912.82l141.92-372.85h105.82l141.92,372.85h-103.35L1176.88,446.64z
		 M1151.17,372.96l-43.52-124.12l-43.52,124.12H1151.17z"/>
	<path class="st0" d="M1441.92,138.57v290.76h116.2v82.09H1345V138.57H1441.92z"/>
	<path class="st0" d="M1821.69,220.66h-116.7v62.31h106.32v82.09h-106.32v146.37h-96.92V138.57h213.62V220.66z"/>
	<path class="st0" d="M2092.68,446.64h-138.46l-22.25,64.78h-103.35l141.92-372.85h105.82l141.92,372.85h-103.35L2092.68,446.64z
		 M2066.96,372.96l-43.52-124.12l-43.52,124.12H2066.96z"/>
	<path class="st0" d="M2385.92,220.66v290.76h-96.92V220.66h-79.61v-82.09h256.15v82.09H2385.92z"/>
	<path class="st0" d="M2720.69,220.66h-115.22v62.31h108.79v82.09h-108.79v64.28h115.22v82.09h-212.14V138.57h212.14V220.66z"/>
	<path class="st0" d="M3018.86,446.64H2880.4l-22.25,64.78H2754.8l141.92-372.85h105.82l141.92,372.85h-103.35L3018.86,446.64z
		 M2993.15,372.96l-43.52-124.12l-43.52,124.12H2993.15z"/>
	<path class="st0" d="M3170.17,511.43l63.29-372.85h95.93l74.67,198.79l74.17-198.79h95.93l63.3,372.85h-96.43l-32.14-214.61
		l-88.02,214.61h-38.57l-83.57-214.61l-32.14,214.61H3170.17z"/>
</g>
<path class="st0" d="M802.7,633.26h-55.42H664.5H72.53c-2.57-1.78-4.67-4.05-6.12-6.72c-4.38-5.98-5.69-13.99-0.6-22.3L419.09,27.26
	c8.59-14.03,28.87-14.03,37.46,0c117.76,192.33,235.52,384.65,353.28,576.98C816.16,614.58,811.81,627.2,802.7,633.26z
	 M216.94,550.58h287.05c5.5-3.66,8.11-11.29,4.3-17.54c-11.2-18.38-21.73-37.36-33.67-55.26c-9.19-13.78-17.68-12.3-33.19-12.3
	h-84.91c27.08-44.23,54.16-88.46,81.24-132.69c30.89,50.45,115,197.46,130.64,213.36c1.98,2.01,4.14,3.38,6.39,4.42h83.54
	c5.5-3.66,8.13-11.29,4.31-17.54c-71.19-116.26-142.37-232.52-213.56-348.78c-5.19-8.48-17.45-8.48-22.64,0L212.89,533.03
	c-3.08,5.03-2.29,9.87,0.36,13.48C214.12,548.13,215.39,549.5,216.94,550.58z"/>
</svg>
