<?xml version="1.0" encoding="utf-8"?>
<!-- Generator: Adobe Illustrator 23.0.2, SVG Export Plug-In . SVG Version: 6.00 Build 0)  -->
<svg version="1.1" id="Layer_1" xmlns="http://www.w3.org/2000/svg" xmlns:xlink="http://www.w3.org/1999/xlink" x="0px" y="0px"
	 viewBox="0 0 3930.88 750.19" style="enable-background:new 0 0 3930.88 750.19;" xml:space="preserve">
<style type="text/css">
	.st0{fill:#FFFFFF;}
</style>
<g>
	<path class="st0" d="M1290.38,487.62h-138.46l-22.25,64.78h-103.35l141.92-372.85h105.82l141.92,372.85h-103.35L1290.38,487.62z
		 M1264.66,413.94l-43.52-124.12l-43.52,124.12H1264.66z"/>
	<path class="st0" d="M1555.42,179.55v290.76h116.2v82.09H1458.5V179.55H1555.42z"/>
	<path class="st0" d="M1935.19,261.64h-116.7v62.31h106.32v82.09h-106.32V552.4h-96.92V179.55h213.62V261.64z"/>
	<path class="st0" d="M2206.17,487.62h-138.46l-22.25,64.78h-103.35l141.92-372.85h105.82l141.92,372.85h-103.35L2206.17,487.62z
		 M2180.46,413.94l-43.52-124.12l-43.52,124.12H2180.46z"/>
	<path class="st0" d="M2499.41,261.64V552.4h-96.92V261.64h-79.61v-82.09h256.15v82.09H2499.41z"/>
	<path class="st0" d="M2834.18,261.64h-115.22v62.31h108.79v82.09h-108.79v64.28h115.22v82.09h-212.14V179.55h212.14V261.64z"/>
	<path class="st0" d="M3132.36,487.62H2993.9l-22.25,64.78H2868.3l141.92-372.85h105.82l141.92,372.85h-103.35L3132.36,487.62z
		 M3106.65,413.94l-43.52-124.12l-43.52,124.12H3106.65z"/>
	<path class="st0" d="M3283.67,552.4l63.29-372.85h95.93l74.67,198.79l74.17-198.79h95.93l63.3,372.85h-96.43l-32.14-214.61
		l-88.02,214.61h-38.57l-83.57-214.61L3380.1,552.4H3283.67z"/>
</g>
<path class="st0" d="M916.2,674.23h-55.42H778H186.03c-2.57-1.78-4.67-4.05-6.12-6.72c-4.38-5.98-5.69-13.99-0.6-22.3L532.59,68.24
	c8.59-14.03,28.87-14.03,37.46,0c117.76,192.33,235.52,384.65,353.28,576.98C929.66,655.55,925.31,668.17,916.2,674.23z
	 M330.44,591.55h287.05c5.5-3.66,8.11-11.29,4.3-17.54c-11.2-18.38-21.73-37.36-33.67-55.26c-9.19-13.78-17.68-12.3-33.19-12.3
	h-84.91c27.08-44.23,54.16-88.46,81.24-132.69c30.89,50.45,115,197.46,130.64,213.36c1.98,2.01,4.14,3.38,6.39,4.42h83.54
	c5.5-3.66,8.13-11.29,4.31-17.54c-71.19-116.26-142.37-232.52-213.56-348.78c-5.19-8.48-17.45-8.48-22.64,0L326.38,574.01
	c-3.08,5.03-2.29,9.87,0.36,13.48C327.62,589.11,328.89,590.48,330.44,591.55z"/>
</svg>
